<?xml version="1.0" encoding="UTF-8" standalone="no"?>
<!-- Created with Inkscape (http://www.inkscape.org/) -->

<svg
   xmlns:dc="http://purl.org/dc/elements/1.1/"
   xmlns:cc="http://creativecommons.org/ns#"
   xmlns:rdf="http://www.w3.org/1999/02/22-rdf-syntax-ns#"
   xmlns:svg="http://www.w3.org/2000/svg"
   xmlns="http://www.w3.org/2000/svg"
   xmlns:sodipodi="http://sodipodi.sourceforge.net/DTD/sodipodi-0.dtd"
   xmlns:inkscape="http://www.inkscape.org/namespaces/inkscape"
   version="1.1"
   width="150"
   height="150"
   id="svg2"
   xml:space="preserve"
   inkscape:version="0.48.4 r9939"
   sodipodi:docname="1-1-columns-prvaci-layouttpl.svg"><sodipodi:namedview
     pagecolor="#ffffff"
     bordercolor="#666666"
     borderopacity="1"
     objecttolerance="10"
     gridtolerance="10"
     guidetolerance="10"
     inkscape:pageopacity="0"
     inkscape:pageshadow="2"
     inkscape:window-width="1920"
     inkscape:window-height="1036"
     id="namedview237"
     showgrid="false"
     inkscape:zoom="3.1466667"
     inkscape:cx="60.497881"
     inkscape:cy="81.334677"
     inkscape:window-x="1438"
     inkscape:window-y="-3"
     inkscape:window-maximized="1"
     inkscape:current-layer="svg2" /><metadata
     id="metadata8"><rdf:RDF><cc:Work
         rdf:about=""><dc:format>image/svg+xml</dc:format><dc:type
           rdf:resource="http://purl.org/dc/dcmitype/StillImage" /><dc:title /></cc:Work></rdf:RDF></metadata><defs
     id="defs6"><clipPath
       id="clipPath42"><path
         d="M 0,120 120,120 120,0 0,0 0,120 z"
         id="path44" /></clipPath><clipPath
       id="clipPath66"><path
         d="M 0,120 120,120 120,0 0,0 0,120 z"
         id="path68" /></clipPath><clipPath
       id="clipPath90"><path
         d="M 0,120 120,120 120,0 0,0 0,120 z"
         id="path92" /></clipPath><clipPath
       id="clipPath114"><path
         d="M 0,120 120,120 120,0 0,0 0,120 z"
         id="path116" /></clipPath><clipPath
       id="clipPath140"><path
         d="M 0,120 120,120 120,0 0,0 0,120 z"
         id="path142" /></clipPath><clipPath
       id="clipPath158"><path
         d="M 0,120 120,120 120,0 0,0 0,120 z"
         id="path160" /></clipPath><clipPath
       id="clipPath178"><path
         d="M 0,120 120,120 120,0 0,0 0,120 z"
         id="path180" /></clipPath><clipPath
       id="clipPath200"><path
         d="M 0,120 120,120 120,0 0,0 0,120 z"
         id="path202" /></clipPath><clipPath
       id="clipPath220"><path
         d="M 0,120 120,120 120,0 0,0 0,120 z"
         id="path222" /></clipPath><clipPath
       id="clipPath228"><path
         d="m 18.0479,102.8 54.0009,0 0,-54.0002 -54.0009,0 0,54.0002 z"
         id="path230" /></clipPath><clipPath
       id="clipPath244"><path
         d="M 0,120 120,120 120,0 0,0 0,120 z"
         id="path246" /></clipPath><clipPath
       id="clipPath252"><path
         d="m 32.4478,87.1992 54.0014,0 0,-54 -54.0014,0 0,54 z"
         id="path254" /></clipPath><clipPath
       id="clipPath268"><path
         d="M 0,120 120,120 120,0 0,0 0,120 z"
         id="path270" /></clipPath><clipPath
       id="clipPath276"><path
         d="m 48.4487,71.1997 53.9983,0 0,-53.9995 -53.9983,0 0,53.9995 z"
         id="path278" /></clipPath><clipPath
       id="clipPath308"><path
         d="M 0,120 120,120 120,0 0,0 0,120 z"
         id="path310" /></clipPath><clipPath
       id="clipPath346"><path
         d="M 0,120 120,120 120,0 0,0 0,120 z"
         id="path348" /></clipPath><clipPath
       id="clipPath380"><path
         d="M 0,120 120,120 120,0 0,0 0,120 z"
         id="path382" /></clipPath><clipPath
       id="clipPath396"><path
         d="M 0,120 120,120 120,0 0,0 0,120 z"
         id="path398" /></clipPath><clipPath
       id="clipPath422"><path
         d="M 0,120 120,120 120,0 0,0 0,120 z"
         id="path424" /></clipPath><clipPath
       id="clipPath456"><path
         d="M 0,120 120,120 120,0 0,0 0,120 z"
         id="path458" /></clipPath></defs><g
     transform="matrix(1.25,0,0,-1.25,0,150)"
     id="g10"><path
       d="m 0.248,0 119.751,0 0,120 -119.751,0 0,-120 z"
       id="path12"
       style="fill:#ffffff;fill-opacity:1;fill-rule:nonzero;stroke:none" /><path
       d="M 0,0 120,0 120,120 0,120 0,0 z M 6,114 114,114 114,6 6,6 6,114 z"
       id="path14"
       style="fill:#1daefc;fill-opacity:1;fill-rule:nonzero;stroke:none" /><path
       d="m 0.248,0 119.751,0 0,120 -119.751,0 0,-120 z"
       id="path16"
       style="fill:#ffffff;fill-opacity:1;fill-rule:nonzero;stroke:none" /><path
       d="M 0,0 120,0 120,120 0,120 0,0 z M 6,114 114,114 114,6 6,6 6,114 z"
       id="path18"
       style="fill:#1daefc;fill-opacity:1;fill-rule:nonzero;stroke:none" /><path
       d="m 0.248,0 119.751,0 0,120 -119.751,0 0,-120 z"
       id="path20"
       style="fill:#ffffff;fill-opacity:1;fill-rule:nonzero;stroke:none" /><path
       d="M 0,0 120,0 120,120 0,120 0,0 z M 6,114 114,114 114,6 6,6 6,114 z"
       id="path22"
       style="fill:#1daefc;fill-opacity:1;fill-rule:nonzero;stroke:none" /><path
       d="M 0.136,0 120,0 l 0,120 -119.864,0 0,-120 z"
       id="path24"
       style="fill:#ffffff;fill-opacity:1;fill-rule:nonzero;stroke:none" /><path
       d="m 0.248,30 59.684,0 0,60 -59.684,0 0,-60 z"
       id="path26"
       style="fill:#e5f5fc;fill-opacity:1;fill-rule:nonzero;stroke:none" /><path
       d="m 0.136,90.518 119.864,0 0,29.481 -119.864,0 0,-29.481 z"
       id="path28"
       style="fill:#ffffff;fill-opacity:1;fill-rule:nonzero;stroke:none" /><path
       d="m 0.248,90.518 119.561,0 0,29.481 -119.561,0 0,-29.481 z"
       id="path30"
       style="fill:#e5f5fc;fill-opacity:1;fill-rule:nonzero;stroke:none" /><path
       d="m 0,0 119.865,0 0,29.477 L 0,29.477 0,0 z"
       id="path32"
       style="fill:#ffffff;fill-opacity:1;fill-rule:nonzero;stroke:none" /><g
       transform="translate(59.9326,90.5186)"
       id="g34"><path
         d="M 0,0 -0.001,-61.042"
         id="path36"
         style="fill:none;stroke:#1daefc;stroke-width:6;stroke-linecap:butt;stroke-linejoin:miter;stroke-miterlimit:10;stroke-opacity:1;stroke-dasharray:none" /></g><g
       id="g38"><g
         clip-path="url(#clipPath42)"
         id="g40"><g
           transform="translate(0.0562,90.5186)"
           id="g46"><path
             d="M 0,0 119.752,0"
             id="path48"
             style="fill:none;stroke:#1daefc;stroke-width:6;stroke-linecap:butt;stroke-linejoin:miter;stroke-miterlimit:10;stroke-opacity:1;stroke-dasharray:none" /></g><g
           transform="translate(0.0562,29.4766)"
           id="g50"><path
             d="M 0,0 119.752,0"
             id="path52"
             style="fill:none;stroke:#1daefc;stroke-width:6;stroke-linecap:butt;stroke-linejoin:miter;stroke-miterlimit:10;stroke-opacity:1;stroke-dasharray:none" /></g></g></g><path
       d="M 0,0 120,0 120,120 0,120 0,0 z M 6,114 114,114 114,6 6,6 6,114 z"
       id="path54"
       style="fill:#1daefc;fill-opacity:1;fill-rule:nonzero;stroke:none" /><path
       d="M 0,0 120,0 120,120 0,120 0,0 z"
       id="path56"
       style="fill:#ffffff;fill-opacity:1;fill-rule:nonzero;stroke:none" /><path
       d="M 35.999,0 120,0 l 0,120 -84.001,0 0,-120 z"
       id="path58"
       style="fill:#f0ffff;fill-opacity:1;fill-rule:nonzero;stroke:none" /><path
       d="m 0,90.518 120,0 0,29.481 -120,0 0,-29.481 z"
       id="path60"
       style="fill:#ffffff;fill-opacity:1;fill-rule:nonzero;stroke:none" /><g
       id="g62"><g
         clip-path="url(#clipPath66)"
         id="g64"><g
           transform="translate(35.9995,90.5186)"
           id="g70"><path
             d="M 0,0 -0.001,-90.519"
             id="path72"
             style="fill:none;stroke:#1daefc;stroke-width:6;stroke-linecap:butt;stroke-linejoin:miter;stroke-miterlimit:10;stroke-opacity:1;stroke-dasharray:none" /></g><g
           transform="translate(0.0562,90.5186)"
           id="g74"><path
             d="M 0,0 119.752,0"
             id="path76"
             style="fill:none;stroke:#1daefc;stroke-width:6;stroke-linecap:butt;stroke-linejoin:miter;stroke-miterlimit:10;stroke-opacity:1;stroke-dasharray:none" /></g></g></g><path
       d="M 0,0 120,0 120,120 0,120 0,0 z M 6,114 114,114 114,6 6,6 6,114 z"
       id="path78"
       style="fill:#1daefc;fill-opacity:1;fill-rule:nonzero;stroke:none" /><path
       d="M 0,0 120,0 120,120 0,120 0,0 z"
       id="path80"
       style="fill:#ffffff;fill-opacity:1;fill-rule:nonzero;stroke:none" /><path
       d="m 0,0 84.001,0 0,120 L 0,120 0,0 z"
       id="path82"
       style="fill:#f0ffff;fill-opacity:1;fill-rule:nonzero;stroke:none" /><path
       d="m 0,90.518 120,0 0,29.481 -120,0 0,-29.481 z"
       id="path84"
       style="fill:#ffffff;fill-opacity:1;fill-rule:nonzero;stroke:none" /><g
       id="g86"><g
         clip-path="url(#clipPath90)"
         id="g88"><g
           transform="translate(84.001,90.5186)"
           id="g94"><path
             d="M 0,0 0,-90.519"
             id="path96"
             style="fill:none;stroke:#1daefc;stroke-width:6;stroke-linecap:butt;stroke-linejoin:miter;stroke-miterlimit:10;stroke-opacity:1;stroke-dasharray:none" /></g><g
           transform="translate(0.0562,90.5186)"
           id="g98"><path
             d="M 0,0 119.752,0"
             id="path100"
             style="fill:none;stroke:#1daefc;stroke-width:6;stroke-linecap:butt;stroke-linejoin:miter;stroke-miterlimit:10;stroke-opacity:1;stroke-dasharray:none" /></g></g></g><path
       d="M 0,0 120,0 120,120 0,120 0,0 z M 6,114 114,114 114,6 6,6 6,114 z"
       id="path102"
       style="fill:#1daefc;fill-opacity:1;fill-rule:nonzero;stroke:none" /><path
       d="M 0,0 120,0 120,120 0,120 0,0 z"
       id="path104"
       style="fill:#e5f5fc;fill-opacity:1;fill-rule:nonzero;stroke:none" /><path
       d="m 0,60 83.001,0 0,59.999 L 0,119.999 0,60 z"
       id="path106"
       style="fill:#ffffff;fill-opacity:1;fill-rule:nonzero;stroke:none" /><path
       d="M 37.001,0 120,0 l 0,60 -82.999,0 0,-60 z"
       id="path108"
       style="fill:#ffffff;fill-opacity:1;fill-rule:nonzero;stroke:none" /><g
       id="g110"><g
         clip-path="url(#clipPath114)"
         id="g112"><g
           transform="translate(37.001,0)"
           id="g118"><path
             d="M 0,0 0,60"
             id="path120"
             style="fill:none;stroke:#1daefc;stroke-width:6;stroke-linecap:butt;stroke-linejoin:miter;stroke-miterlimit:10;stroke-opacity:1;stroke-dasharray:none" /></g><g
           transform="translate(83.001,60)"
           id="g122"><path
             d="M 0,0 0,59.752"
             id="path124"
             style="fill:none;stroke:#1daefc;stroke-width:6;stroke-linecap:butt;stroke-linejoin:miter;stroke-miterlimit:10;stroke-opacity:1;stroke-dasharray:none" /></g><g
           transform="translate(0.248,60)"
           id="g126"><path
             d="M 0,0 119.752,0"
             id="path128"
             style="fill:none;stroke:#1daefc;stroke-width:6;stroke-linecap:butt;stroke-linejoin:miter;stroke-miterlimit:10;stroke-opacity:1;stroke-dasharray:none" /></g></g></g><path
       d="M 0,0 120,0 120,120 0,120 0,0 z M 6,114 114,114 114,6 6,6 6,114 z"
       id="path130"
       style="fill:#1daefc;fill-opacity:1;fill-rule:nonzero;stroke:none" /><path
       d="M 0,0 120,0 120,120 0,120 0,0 z"
       id="path132"
       style="fill:#ffffff;fill-opacity:1;fill-rule:nonzero;stroke:none" /><path
       d="M 0,0 60,0 60,120 0,120 0,0 z"
       id="path134"
       style="fill:#e5f5fc;fill-opacity:1;fill-rule:nonzero;stroke:none" /><g
       id="g136"><g
         clip-path="url(#clipPath140)"
         id="g138"><g
           transform="translate(60,0)"
           id="g144"><path
             d="M 0,0 0,119.752"
             id="path146"
             style="fill:none;stroke:#1daefc;stroke-width:6;stroke-linecap:butt;stroke-linejoin:miter;stroke-miterlimit:10;stroke-opacity:1;stroke-dasharray:none" /></g></g></g><path
       d="M 0,0 120,0 120,120 0,120 0,0 z M 6,114 114,114 114,6 6,6 6,114 z"
       id="path148"
       style="fill:#1daefc;fill-opacity:1;fill-rule:nonzero;stroke:none" /><path
       d="M 0.001,0 120,0 l 0,120 -119.999,0 0,-120 z"
       id="path150"
       style="fill:#e5f5fc;fill-opacity:1;fill-rule:nonzero;stroke:none" /><path
       d="M 36.001,0 120,0 l 0,120 -83.999,0 0,-120 z"
       id="path152"
       style="fill:#ffffff;fill-opacity:1;fill-rule:nonzero;stroke:none" /><g
       id="g154"><g
         clip-path="url(#clipPath158)"
         id="g156"><g
           transform="translate(36.001,0.124)"
           id="g162"><path
             d="M 0,0 0,119.752"
             id="path164"
             style="fill:none;stroke:#1daefc;stroke-width:6;stroke-linecap:butt;stroke-linejoin:miter;stroke-miterlimit:10;stroke-opacity:1;stroke-dasharray:none" /></g></g></g><path
       d="M 0,0 120,0 120,120 0,120 0,0 z M 6,114 114,114 114,6 6,6 6,114 z"
       id="path166"
       style="fill:#1daefc;fill-opacity:1;fill-rule:nonzero;stroke:none" /><path
       d="M 0.001,0 120,0 l 0,120 -119.999,0 0,-120 z"
       id="path168"
       style="fill:#e5f5fc;fill-opacity:1;fill-rule:nonzero;stroke:none" /><g
       transform="translate(9e-4,119.9997)"
       id="g170"><path
         d="m 0,0 0,-120 83.998,0 L 83.999,0 0,0 z"
         id="path172"
         style="fill:#ffffff;fill-opacity:1;fill-rule:nonzero;stroke:none" /></g><g
       id="g174"><g
         clip-path="url(#clipPath178)"
         id="g176"><g
           transform="translate(84,119.876)"
           id="g182"><path
             d="M 0,0 -0.001,-119.752"
             id="path184"
             style="fill:none;stroke:#1daefc;stroke-width:6;stroke-linecap:butt;stroke-linejoin:miter;stroke-miterlimit:10;stroke-opacity:1;stroke-dasharray:none" /></g></g></g><path
       d="M 0,0 120,0 120,120 0,120 0,0 z M 6,114 114,114 114,6 6,6 6,114 z"
       id="path186"
       style="fill:#1daefc;fill-opacity:1;fill-rule:nonzero;stroke:none" /><path
       d="m 0.5,0.5 119,0 0,119 -119,0 0,-119 z"
       id="path188"
       style="fill:#e5f5fc;fill-opacity:1;fill-rule:nonzero;stroke:none" /><path
       d="M 0,0 120,0 120,120 0,120 0,0 z M 1,119 119,119 119,1 1,1 1,119 z"
       id="path190"
       style="fill:#1daefc;fill-opacity:1;fill-rule:nonzero;stroke:none" /><path
       d="m 40.499,0.5 39.001,0 0,119 -39.001,0 0,-119 z"
       id="path192"
       style="fill:#ffffff;fill-opacity:1;fill-rule:nonzero;stroke:none" /><path
       d="m 40,0 40.001,0 0,120 L 40,120 40,0 z M 40.999,119 79,119 79,1 40.999,1 l 0,118 z"
       id="path194"
       style="fill:#1daefc;fill-opacity:1;fill-rule:nonzero;stroke:none" /><g
       id="g196"><g
         clip-path="url(#clipPath200)"
         id="g198"><g
           transform="translate(80,0)"
           id="g204"><path
             d="M 0,0 0,119.752"
             id="path206"
             style="fill:none;stroke:#1daefc;stroke-width:6;stroke-linecap:butt;stroke-linejoin:miter;stroke-miterlimit:10;stroke-opacity:1;stroke-dasharray:none" /></g><g
           transform="translate(39.9995,0)"
           id="g208"><path
             d="M 0,0 0,119.752"
             id="path210"
             style="fill:none;stroke:#1daefc;stroke-width:6;stroke-linecap:butt;stroke-linejoin:miter;stroke-miterlimit:10;stroke-opacity:1;stroke-dasharray:none" /></g></g></g><path
       d="M 0,0 120,0 120,120 0,120 0,0 z M 6,114 114,114 114,6 6,6 6,114 z"
       id="path212"
       style="fill:#1daefc;fill-opacity:1;fill-rule:nonzero;stroke:none" /><path
       d="m 0.248,0 119.751,0 0,120 -119.751,0 0,-120 z"
       id="path214"
       style="fill:#ffffff;fill-opacity:1;fill-rule:nonzero;stroke:none" /><g
       id="g216"><g
         clip-path="url(#clipPath220)"
         id="g218"><g
           id="g224"><g
             id="g226" /><g
             id="g232"><g
               clip-path="url(#clipPath228)"
               id="g234"
               style="opacity:0.60000598"><path
                 d="m 18.048,102.8 54.001,0 0,-54 -54.001,0 0,54 z"
                 id="path236"
                 style="fill:#ffffff;fill-opacity:1;fill-rule:nonzero;stroke:none" /></g></g></g></g></g><path
       d="m 75.049,105.8 -60.001,0 0,-60 60.001,0 0,60 z m -6,-54 -48.001,0 0,48 48.001,0 0,-48 z"
       id="path238"
       style="fill:#1daefc;fill-opacity:1;fill-rule:nonzero;stroke:none" /><g
       id="g240"><g
         clip-path="url(#clipPath244)"
         id="g242"><g
           id="g248"><g
             id="g250" /><g
             id="g256"><g
               clip-path="url(#clipPath252)"
               id="g258"
               style="opacity:0.60000598"><path
                 d="m 32.448,87.199 54.001,0 0,-54 -54.001,0 0,54 z"
                 id="path260"
                 style="fill:#f0ffff;fill-opacity:1;fill-rule:nonzero;stroke:none" /></g></g></g></g></g><path
       d="m 89.449,90.199 -60.001,0 0,-60 60.001,0 0,60 z m -6,-54 -48.001,0 0,48 48.001,0 0,-48 z"
       id="path262"
       style="fill:#1daefc;fill-opacity:1;fill-rule:nonzero;stroke:none" /><g
       id="g264"><g
         clip-path="url(#clipPath268)"
         id="g266"><g
           id="g272"><g
             id="g274" /><g
             id="g280"><g
               clip-path="url(#clipPath276)"
               id="g282"
               style="opacity:0.60000598"><path
                 d="m 48.449,71.2 53.999,0 0,-54 -53.999,0 0,54 z"
                 id="path284"
                 style="fill:#ffffff;fill-opacity:1;fill-rule:nonzero;stroke:none" /></g></g></g></g></g><path
       d="m 105.447,74.2 -59.999,0 0,-60 59.999,0 0,60 z m -6,-54 -47.999,0 0,48 47.999,0 0,-48 z"
       id="path286"
       style="fill:#1daefc;fill-opacity:1;fill-rule:nonzero;stroke:none" /><path
       d="M 0,0 120,0 120,120 0,120 0,0 z M 6,114 114,114 114,6 6,6 6,114 z"
       id="path288"
       style="fill:#1daefc;fill-opacity:1;fill-rule:nonzero;stroke:none" /><path
       d="M 0.136,0 120,0 l 0,120 -119.864,0 0,-120 z"
       id="path290"
       style="fill:#ffffff;fill-opacity:1;fill-rule:nonzero;stroke:none" /><path
       d="m 0.136,32.449 82.865,0 0,59.999 -82.865,0 0,-59.999 z"
       id="path292"
       style="fill:#e5f5fc;fill-opacity:1;fill-rule:nonzero;stroke:none" /><path
       d="m 0.136,90.518 119.864,0 0,29.481 -119.864,0 0,-29.481 z"
       id="path294"
       style="fill:#ffffff;fill-opacity:1;fill-rule:nonzero;stroke:none" /><path
       d="m 0.248,90.518 119.561,0 0,29.481 -119.561,0 0,-29.481 z"
       id="path296"
       style="fill:#e5f5fc;fill-opacity:1;fill-rule:nonzero;stroke:none" /><path
       d="m 0,0 119.865,0 0,29.477 L 0,29.477 0,0 z"
       id="path298"
       style="fill:#ffffff;fill-opacity:1;fill-rule:nonzero;stroke:none" /><g
       transform="translate(83.001,90.5186)"
       id="g300"><path
         d="M 0,0 -0.001,-61.042"
         id="path302"
         style="fill:none;stroke:#1daefc;stroke-width:6;stroke-linecap:butt;stroke-linejoin:miter;stroke-miterlimit:10;stroke-opacity:1;stroke-dasharray:none" /></g><g
       id="g304"><g
         clip-path="url(#clipPath308)"
         id="g306"><g
           transform="translate(0.0562,90.5186)"
           id="g312"><path
             d="M 0,0 119.752,0"
             id="path314"
             style="fill:none;stroke:#1daefc;stroke-width:6;stroke-linecap:butt;stroke-linejoin:miter;stroke-miterlimit:10;stroke-opacity:1;stroke-dasharray:none" /></g><g
           transform="translate(0.0562,29.4766)"
           id="g316"><path
             d="M 0,0 119.752,0"
             id="path318"
             style="fill:none;stroke:#1daefc;stroke-width:6;stroke-linecap:butt;stroke-linejoin:miter;stroke-miterlimit:10;stroke-opacity:1;stroke-dasharray:none" /></g></g></g><path
       d="M 0,0 120,0 120,120 0,120 0,0 z M 6,114 114,114 114,6 6,6 6,114 z"
       id="path320"
       style="fill:#1daefc;fill-opacity:1;fill-rule:nonzero;stroke:none" /><path
       d="M 0.136,0 120,0 l 0,120 -119.864,0 0,-120 z"
       id="path322"
       style="fill:#ffffff;fill-opacity:1;fill-rule:nonzero;stroke:none" /><path
       d="m 0.136,32.449 39.863,0 0,59.999 -39.863,0 0,-59.999 z"
       id="path324"
       style="fill:#e5f5fc;fill-opacity:1;fill-rule:nonzero;stroke:none" /><path
       d="m 79.998,32.449 39.863,0 0,59.999 -39.863,0 0,-59.999 z"
       id="path326"
       style="fill:#e5f5fc;fill-opacity:1;fill-rule:nonzero;stroke:none" /><path
       d="m 0.136,90.518 119.864,0 0,29.481 -119.864,0 0,-29.481 z"
       id="path328"
       style="fill:#ffffff;fill-opacity:1;fill-rule:nonzero;stroke:none" /><path
       d="m 0.248,90.518 119.561,0 0,29.481 -119.561,0 0,-29.481 z"
       id="path330"
       style="fill:#e5f5fc;fill-opacity:1;fill-rule:nonzero;stroke:none" /><path
       d="m 0,0 119.865,0 0,29.477 L 0,29.477 0,0 z"
       id="path332"
       style="fill:#ffffff;fill-opacity:1;fill-rule:nonzero;stroke:none" /><g
       transform="translate(80,90.5186)"
       id="g334"><path
         d="M 0,0 -0.001,-61.042"
         id="path336"
         style="fill:none;stroke:#1daefc;stroke-width:6;stroke-linecap:butt;stroke-linejoin:miter;stroke-miterlimit:10;stroke-opacity:1;stroke-dasharray:none" /></g><g
       transform="translate(40,90.5186)"
       id="g338"><path
         d="M 0,0 -0.001,-61.042"
         id="path340"
         style="fill:none;stroke:#1daefc;stroke-width:6;stroke-linecap:butt;stroke-linejoin:miter;stroke-miterlimit:10;stroke-opacity:1;stroke-dasharray:none" /></g><g
       id="g342"><g
         clip-path="url(#clipPath346)"
         id="g344"><g
           transform="translate(0.0562,90.5186)"
           id="g350"><path
             d="M 0,0 119.752,0"
             id="path352"
             style="fill:none;stroke:#1daefc;stroke-width:6;stroke-linecap:butt;stroke-linejoin:miter;stroke-miterlimit:10;stroke-opacity:1;stroke-dasharray:none" /></g><g
           transform="translate(0.0562,29.4766)"
           id="g354"><path
             d="M 0,0 119.752,0"
             id="path356"
             style="fill:none;stroke:#1daefc;stroke-width:6;stroke-linecap:butt;stroke-linejoin:miter;stroke-miterlimit:10;stroke-opacity:1;stroke-dasharray:none" /></g></g></g><path
       d="M 0,0 120,0 120,120 0,120 0,0 z M 6,114 114,114 114,6 6,6 6,114 z"
       id="path358"
       style="fill:#1daefc;fill-opacity:1;fill-rule:nonzero;stroke:none" /><path
       d="M 0.136,0 120,0 l 0,120 -119.864,0 0,-120 z"
       id="path360"
       style="fill:#ffffff;fill-opacity:1;fill-rule:nonzero;stroke:none" /><path
       d="m 0.136,32.449 39.863,0 0,59.999 -39.863,0 0,-59.999 z"
       id="path362"
       style="fill:#e5f5fc;fill-opacity:1;fill-rule:nonzero;stroke:none" /><path
       d="m 79.998,32.449 39.863,0 0,59.999 -39.863,0 0,-59.999 z"
       id="path364"
       style="fill:#e5f5fc;fill-opacity:1;fill-rule:nonzero;stroke:none" /><path
       d="m 0.136,90.518 119.864,0 0,29.481 -119.864,0 0,-29.481 z"
       id="path366"
       style="fill:#ffffff;fill-opacity:1;fill-rule:nonzero;stroke:none" /><path
       d="m 0.248,90.518 119.561,0 0,29.481 -119.561,0 0,-29.481 z"
       id="path368"
       style="fill:#e5f5fc;fill-opacity:1;fill-rule:nonzero;stroke:none" /><path
       d="m 0,0 119.865,0 0,29.477 L 0,29.477 0,0 z"
       id="path370"
       style="fill:#ffffff;fill-opacity:1;fill-rule:nonzero;stroke:none" /><g
       transform="translate(80,90.5186)"
       id="g372"><path
         d="M 0,0 -0.001,-61.042"
         id="path374"
         style="fill:none;stroke:#1daefc;stroke-width:6;stroke-linecap:butt;stroke-linejoin:miter;stroke-miterlimit:10;stroke-opacity:1;stroke-dasharray:none" /></g><g
       id="g376"><g
         clip-path="url(#clipPath380)"
         id="g378"><g
           transform="translate(60.1245,30)"
           id="g384"><path
             d="M 0,0 -0.001,-30"
             id="path386"
             style="fill:none;stroke:#1daefc;stroke-width:6;stroke-linecap:butt;stroke-linejoin:miter;stroke-miterlimit:10;stroke-opacity:1;stroke-dasharray:none" /></g></g></g><g
       transform="translate(40,90.5186)"
       id="g388"><path
         d="M 0,0 -0.001,-61.042"
         id="path390"
         style="fill:none;stroke:#1daefc;stroke-width:6;stroke-linecap:butt;stroke-linejoin:miter;stroke-miterlimit:10;stroke-opacity:1;stroke-dasharray:none" /></g><g
       id="g392"><g
         clip-path="url(#clipPath396)"
         id="g394"><g
           transform="translate(0.0562,90.5186)"
           id="g400"><path
             d="M 0,0 119.752,0"
             id="path402"
             style="fill:none;stroke:#1daefc;stroke-width:6;stroke-linecap:butt;stroke-linejoin:miter;stroke-miterlimit:10;stroke-opacity:1;stroke-dasharray:none" /></g><g
           transform="translate(0.0562,29.4766)"
           id="g404"><path
             d="M 0,0 119.752,0"
             id="path406"
             style="fill:none;stroke:#1daefc;stroke-width:6;stroke-linecap:butt;stroke-linejoin:miter;stroke-miterlimit:10;stroke-opacity:1;stroke-dasharray:none" /></g></g></g><path
       d="M 0,0 120,0 120,120 0,120 0,0 z M 6,114 114,114 114,6 6,6 6,114 z"
       id="path408"
       style="fill:#1daefc;fill-opacity:1;fill-rule:nonzero;stroke:none" /><path
       d="M 0.136,0 120,0 l 0,120 -119.864,0 0,-120 z"
       id="path410"
       style="fill:#ffffff;fill-opacity:1;fill-rule:nonzero;stroke:none" /><path
       d="m 0.136,32.449 119.673,0 0,59.999 -119.673,0 0,-59.999 z"
       id="path412"
       style="fill:#e5f5fc;fill-opacity:1;fill-rule:nonzero;stroke:none" /><path
       d="m 0.136,90.518 119.864,0 0,29.481 -119.864,0 0,-29.481 z"
       id="path414"
       style="fill:#ffffff;fill-opacity:1;fill-rule:nonzero;stroke:none" /><path
       d="m 0,0 119.865,0 0,29.477 L 0,29.477 0,0 z"
       id="path416"
       style="fill:#ffffff;fill-opacity:1;fill-rule:nonzero;stroke:none" /><g
       id="g418"><g
         clip-path="url(#clipPath422)"
         id="g420"><g
           transform="translate(60.1245,30)"
           id="g426"><path
             d="M 0,0 -0.001,-30"
             id="path428"
             style="fill:none;stroke:#1daefc;stroke-width:6;stroke-linecap:butt;stroke-linejoin:miter;stroke-miterlimit:10;stroke-opacity:1;stroke-dasharray:none" /></g><g
           transform="translate(60.1245,119.752)"
           id="g430"><path
             d="M 0,0 -0.001,-30"
             id="path432"
             style="fill:none;stroke:#1daefc;stroke-width:6;stroke-linecap:butt;stroke-linejoin:miter;stroke-miterlimit:10;stroke-opacity:1;stroke-dasharray:none" /></g><g
           transform="translate(0.0562,90.5186)"
           id="g434"><path
             d="M 0,0 119.752,0"
             id="path436"
             style="fill:none;stroke:#1daefc;stroke-width:6;stroke-linecap:butt;stroke-linejoin:miter;stroke-miterlimit:10;stroke-opacity:1;stroke-dasharray:none" /></g><g
           transform="translate(0.0562,29.4766)"
           id="g438"><path
             d="M 0,0 119.752,0"
             id="path440"
             style="fill:none;stroke:#1daefc;stroke-width:6;stroke-linecap:butt;stroke-linejoin:miter;stroke-miterlimit:10;stroke-opacity:1;stroke-dasharray:none" /></g></g></g><path
       d="M 0,0 120,0 120,120 0,120 0,0 z M 6,114 114,114 114,6 6,6 6,114 z"
       id="path442"
       style="fill:#1daefc;fill-opacity:1;fill-rule:nonzero;stroke:none" /><path
       d="M 0.136,0 120,0 l 0,120 -119.864,0 0,-120 z"
       id="path444"
       style="fill:#ffffff;fill-opacity:1;fill-rule:nonzero;stroke:none" /><path
       d="m 2.7098644,0.124 117.1511356,0 0,59.353 -117.1511356,0 0,-59.353 z"
       id="path448"
       style="fill:#e5f5fc;fill-opacity:1;fill-rule:nonzero;stroke:none"
       inkscape:connector-curvature="0" /><g
       id="g452"><g
         clip-path="url(#clipPath456)"
         id="g454"><g
           transform="translate(80,120.001)"
           id="g460" /><g
           transform="translate(79.999,30)"
           id="g464" /><g
           transform="translate(40,120)"
           id="g468" /><g
           transform="translate(0.0562,90.5186)"
           id="g472"><path
             d="m -1.779661,-30.357594 123.565561,0"
             id="path474"
             style="fill:none;stroke:#1daefc;stroke-width:6;stroke-linecap:butt;stroke-linejoin:miter;stroke-miterlimit:10;stroke-opacity:1;stroke-dasharray:none"
             inkscape:connector-curvature="0"
             sodipodi:nodetypes="cc" /></g><g
           transform="translate(0.0562,29.4766)"
           id="g476" /></g></g><path
       d="m 0,0 120,0 0,120 -120,0 z M 6,114 114,114 114,6 6,6 z"
       id="path480"
       style="fill:#1daefc;fill-opacity:1;fill-rule:nonzero;stroke:none"
       inkscape:connector-curvature="0"
       sodipodi:nodetypes="cccccccccc" /></g></svg>